<?xml version="1.0" encoding="utf-8"?>
<!-- Generator: Adobe Illustrator 21.0.0, SVG Export Plug-In . SVG Version: 6.00 Build 0)  -->
<svg version="1.1" id="Layer_1" xmlns="http://www.w3.org/2000/svg" xmlns:xlink="http://www.w3.org/1999/xlink" x="0px" y="0px"
	 viewBox="0 0 122 122" style="enable-background:new 0 0 122 122;" xml:space="preserve">
<style type="text/css">
	.st0{filter:url(#Adobe_OpacityMaskFilter);}
	.st1{fill:url(#SVGID_2_);}
	.st2{mask:url(#SVGID_1_);fill:#FFFFFF;}
	.st3{fill:url(#SVGID_3_);}
	.st4{fill:url(#SVGID_4_);}
	.st5{fill:url(#SVGID_5_);}
	.st6{fill:url(#SVGID_6_);}
</style>
<defs>
	<filter id="Adobe_OpacityMaskFilter" filterUnits="userSpaceOnUse" x="0" y="0" width="120.4" height="120.4">
		<feColorMatrix  type="matrix" values="1 0 0 0 0  0 1 0 0 0  0 0 1 0 0  0 0 0 1 0"/>
	</filter>
</defs>
<mask maskUnits="userSpaceOnUse" x="0" y="0" width="120.4" height="120.4" id="SVGID_1_">
	<g class="st0">
		<radialGradient id="SVGID_2_" cx="60.218" cy="60.6933" r="58.5823" gradientUnits="userSpaceOnUse">
			<stop  offset="0.9451" style="stop-color:#FFFFFF"/>
			<stop  offset="0.9456" style="stop-color:#F8F8F8"/>
			<stop  offset="0.9499" style="stop-color:#C4C4C4"/>
			<stop  offset="0.9544" style="stop-color:#969696"/>
			<stop  offset="0.9592" style="stop-color:#6D6D6D"/>
			<stop  offset="0.9641" style="stop-color:#4B4B4B"/>
			<stop  offset="0.9694" style="stop-color:#303030"/>
			<stop  offset="0.9751" style="stop-color:#1B1B1B"/>
			<stop  offset="0.9814" style="stop-color:#0C0C0C"/>
			<stop  offset="0.9888" style="stop-color:#030303"/>
			<stop  offset="1" style="stop-color:#000000"/>
		</radialGradient>
		<circle class="st1" cx="60.2" cy="60.7" r="58.6"/>
	</g>
</mask>
<path class="st2" d="M120.4,60.2c0,33.3-27,60.2-60.2,60.2C27,120.4,0,93.5,0,60.2C0,27,27,0,60.2,0C93.5,0,120.4,27,120.4,60.2z"/>
<g>
	<radialGradient id="SVGID_3_" cx="43.9598" cy="52.3992" r="36.8034" gradientUnits="userSpaceOnUse">
		<stop  offset="0" style="stop-color:#B9E0F7"/>
		<stop  offset="1" style="stop-color:#0079C2"/>
	</radialGradient>
	<circle class="st3" cx="60.6" cy="62" r="51.9"/>
	<g>
		<radialGradient id="SVGID_4_" cx="41.9106" cy="52.9136" r="45.1503" gradientUnits="userSpaceOnUse">
			<stop  offset="0" style="stop-color:#B3D334"/>
			<stop  offset="0.9607" style="stop-color:#009E46"/>
		</radialGradient>
		<path class="st4" d="M16.5,66.6c-2.4-7.9,0.4-15.4,6.3-16c5.3-0.5,9.8-8.4,13.5-13.5C44,26.5,55.7,28.3,55.1,23
			c-1.7-7.8-10.7-2-16.5-1.8c-4,0.2-7.8,0.7-11.7,1.3C16.2,31.7,9.2,45.2,8.7,60.4c3.1,3.2,7.1,10.5,11.8,14.7
			c0.6-0.3,1.3-0.5,2-0.7C20.2,71.7,17,68.2,16.5,66.6z"/>
		<radialGradient id="SVGID_5_" cx="53.3235" cy="49.9627" r="57.3897" gradientUnits="userSpaceOnUse">
			<stop  offset="0" style="stop-color:#B3D334"/>
			<stop  offset="0.9607" style="stop-color:#009E46"/>
		</radialGradient>
		<path class="st5" d="M52.2,95.4c2.7-7.1,4.3-10.3,0.6-17.7c-8.2-2.3-10.6-3-18.8-4.7c-4.3-0.9-4.4-0.6-9.3,0.8
			c-0.8,0.2-1.5,0.4-2.2,0.6c-0.7,0.2-1.2,0.4-2,0.7c-1.9,0.9-3.3,2.2-3.6,4.9c-0.6,5,4.2,9,8.3,10.2c5.1,1.5,5.6-0.2,8.2,3.4
			c1.9,2.5,2.2,7.3,3.2,10.4c0.5,1.7,1.3,3.5,2.1,5.1c3.7,1.7,7.6,3,11.6,3.8C51.3,106.9,50.9,98.9,52.2,95.4z"/>
		<radialGradient id="SVGID_6_" cx="57.5304" cy="25.4784" r="75.8548" gradientUnits="userSpaceOnUse">
			<stop  offset="0" style="stop-color:#B3D334"/>
			<stop  offset="0.9607" style="stop-color:#009E46"/>
		</radialGradient>
		<path class="st6" d="M112.4,59.7c-0.6-14.3-7.1-27.2-17-36.2c-0.9,0.3-2.1,0.3-3.7,0c-10.8-2-13.3,4.3-16.5,8.8
			c-2.4,3.4-10.8,4.4-13.5,8.2c-2.1,3,0.1,8.9-1.8,12.4c-0.8,1.6-0.5,6.1,0.6,7.6c3.2,4.7,8.6,2.1,12.7,3.8c5,2.1,5.5,7.8,9.6,12
			c4.1,4.2-5.2,10.7,2.4,26c0.8,1.6,1.8,2.9,2.8,3.7c5.2-3.2,9.7-7.3,13.5-12.1c1.2-7.7-1.5-10.2,1.8-17.3
			C105.2,72.4,108.7,64.8,112.4,59.7z"/>
	</g>
	<path d="M43.9,50.4c8.8-3.7,18.4-6.7,31.3-7.8C72,34.7,68.3,29.1,64.1,24c-9.5,0.8-18.2,3.3-25.7,6.4
		C39.5,36.3,41.5,43.4,43.9,50.4z M85.1,72.2C72.9,72,62.2,75,54.9,78.5C58,85.2,64.1,94,66.4,97.6c4-1.5,8.2-2.6,11.6-3.1
		c3.3-0.5,7.7-1,10.7-0.9C88.1,85.8,87.2,80.6,85.1,72.2z M52.7,74.1c9.8-4.5,20.5-6.5,31.3-6.2c-2.9-10.2-4.6-14.9-7.1-21.2
		c-12,0.5-22.2,3.5-31.5,7.9C45.3,54.6,48.8,65.7,52.7,74.1z M90.3,24.9c-6-1.1-14.7-1.8-21.2-1.4c4.4,6.1,7.7,11.4,10.7,19
		c8.2,0.2,19.3,2.6,23.9,4.4C100.9,39.7,95.8,30.5,90.3,24.9z M108.9,73.1c-0.4-6.7-1.4-15.8-3.9-22c-6.6-2.7-15.7-4.3-23.6-4.4
		c2.5,5.7,5.3,15.3,6.7,21.4C93.8,68.8,102.8,70.4,108.9,73.1z M103.4,25.9C94.9,15.5,75.5,6.6,54,7.9c4.8,3.2,8.8,8,12.3,11.9
		c5.4-0.5,16.7,0.4,20.9,1.6c-0.7-0.9-1.6-1.7-1.8-2.2c-0.6-1.3,0.8-1.6,2-0.8c1.5,0.9,3.2,2.1,4.5,3.4
		C94.4,22.4,100.6,24.5,103.4,25.9z M113.7,76.3c-0.2,0.8-1.7,1.7-2.4,1.5c0.1,1.5-0.2,8.9-0.6,11.7c1-2.1,3-7.4,3.6-9.6l0.8-3.3
		c0.8-2.8,3.5-12.3,1.1-24.9c-2.7-14-7.8-19-9.5-21.2c-4.5-2.4-11.3-4.7-11.3-4.7c6.2,8.3,8.3,12.3,12,22.2c2.1,1.1,6,3.3,6.5,3.8
		c0.4,0.5,0.4,1.3-0.8,1.3c-1,0-3-1-4.5-1.4c1.6,5.4,2.9,15.5,2.8,22.3C111.3,74.1,114,75.4,113.7,76.3z M105.9,96.8
		c0.9-0.9,2.2-2.8,2.7-3.8c0.5-4.4,0.5-13.5,0.3-16.2c-5.3-2.2-13.6-3.9-19.6-4.3c2,7.2,2.9,17.8,3.1,21.3
		C95.3,94,102.6,95.5,105.9,96.8z M92.1,109c4.7-2.9,9.1-6.3,12.3-10.3c-2.7-0.7-8.9-1.5-11.9-1.3C92.5,97.4,92.4,104.7,92.1,109z
		 M79.3,115c2.3-0.7,8.3-3.4,9.5-4.2c0.3-4.8,0.2-10.2,0-13.5c-6.2,0-15,1.8-20,3.9C71.8,106,75.8,111.1,79.3,115z M51.3,111
		c1.7,1.8,8.6,6.3,8.6,6.3c4.6,0.2,10.4-0.3,14.5-1.1c-2.3-2.6-8-10.7-9.7-13.4C60.4,104.7,54.8,108.1,51.3,111z M32.5,91.7
		c4.4,5.6,11.3,12.8,16,16.7c4.5-3.6,9.7-7,13.9-9.1c-3.7-5.7-9.1-14-11.4-19.1C42.9,83.9,38.2,86.9,32.5,91.7z M20.8,69.2
		c2.8,8,5.5,14.1,9,19.1C34,84.7,42.4,79,48.9,75.9c-2.1-4.6-5.2-13.2-7.4-19.6C33.2,60.4,27,64.4,20.8,69.2z M14.1,45.2
		c0.7,4.6,2.9,14.5,4.9,19.5c4.7-3.5,15.4-10.1,21.4-12.8c-2.1-7.7-3.5-12.5-4.7-20.3C27.1,35.4,18.1,41.3,14.1,45.2z M13.1,28.8
		c-0.3,2.3,0,6.6,0.6,11.7c4.7-4.2,13.8-9.7,21.4-13.1c-0.9-5.8-1.8-15-1.7-17.5c-7,3.9-14.8,11.6-20.4,19.6 M36,5.4
		c10.1-4.2,20-6.5,31.3-4.9c1.3,0.2,1.2,1.2-0.2,1.3l-1.6,0c-9.2,0.1-22.6,3.1-29.6,7c-0.1,4.6,0.7,12,1.7,17.8
		c6.3-2.7,16.1-5.4,23.5-6.2c-4.2-4.5-10-8.7-10.6-9.2c-0.7-0.5-1-1.3-1-2.4c0.1-2,1.8-2.3,2.8-2c3.1-0.6,6.2-1.3,11.4-1.1
		c22.1-1,42.4,11.6,50.1,25.8c19.6,30.9,0,73.6-25.6,85c-11,4.9-20.3,7-37.7,4.5c-17.4-2.4-31.5-10.9-42.6-28.7
		c-13.6-22-5.9-47.6-4-52.9C12,20.1,25.4,9.9,36,5.4z M9.8,43.5c-0.2-3.3-0.5-7.9-0.5-7.9c-2.4,5.3-3.9,8.5-4.6,14.7
		C6.5,47.3,9.8,43.5,9.8,43.5z M45.6,110.9c-3.7-2.7-12.8-11.4-16.6-16.6c-1.4,0.8-2.9,3-4.9,3.4c-0.8,0.1-2.6,0.4-3.1,0.1
		c-0.5-0.2,0.1-1.3,0.7-2.1c1-1.3,2.4-2.9,4.5-4.6c-4.5-6.6-6.6-11.4-9.7-19.3c-1.8,1.1-3,2.1-4.6,3.3c-0.5,0.4-1.9,0.7-2.6,0
		C8,74.2,8,72.2,9.8,70.9c0.7-0.5,4.3-3,5.2-3.7c-2.2-6.4-4.1-14.7-4.5-19.1c-1.5,1.3-3.5,2.7-4.1,3.1c-0.8,0.2-1.4,0-1.6-0.1
		c-0.8,9,0.1,18.9,2.8,27.9c4.6,15.4,17.5,30.1,34.9,35.5C42.7,114,44.7,111.7,45.6,110.9z M54.6,117.1c-1.7-1-3.9-2.5-5.9-3.8
		c-0.8,0.7-1.5,1.8-2.2,2.7C48.9,116.7,52,116.8,54.6,117.1z"/>
</g>
</svg>
